# xmcd
#
# Track frame offsets:
#	150
#	13462
#	26607
#	46982
#	68922
#	89537
#	107095
#	128665
#	146735
#	162945
#	178645
#	190090
#	206442
#	218702
#	233800
#	255727
#	270817
#	301250
#
# Disc length: 4440 seconds
#
# Revision: 3
# Processed by: cddbd v1.5.2PL0 Copyright (c) Steve Scherf et al.
# Submitted via: EasyCDDAExtractor 15.3.0.1
#
DISCID=f9115612
DTITLE=Various Artist - The Winners 2004, Cd 1
DYEAR=2004
DGENRE=Country
TTITLE0=Sara Storer - Beautiful Circle
TTITLE1=Adam Harvey - Call It Love
TTITLE2=Jimmy Little Featuring Troy Cassar-Daley - Down The Road
TTITLE3=Beccy Cole - Blackwood Hill
TTITLE4=Fisk and Cristian - Under The Influence Of Love
TTITLE5=Billy Bridge - Mallee Dust
TTITLE6=The Flood - Paul Kelly's Blues
TTITLE7=Bella - Tumbling Down
TTITLE8=Michael Carr - Up On His Shoulders
TTITLE9=Southbound - You Didn't Need The World
TTITLE10=Glenn Jones - Cane To Cotton
TTITLE11=Lee Kernaghan With Travis Sinclair - I'm From The Country
TTITLE12=Trev Warner - Peel Street Pickin'
TTITLE13=Martin Oakes - Good Cattleman
TTITLE14=Adam Brand - The ANZAC
TTITLE15=Melinda Schneider and Billy Thorpe - When The Last Child Leaves Home
TTITLE16=Keith Urban - Who Wouldn't Wanna Be Me
TTITLE17=Data - DATA
EXTD=YEAR: 2004 ID3G: 2
EXTT0=
EXTT1=
EXTT2=
EXTT3=
EXTT4=
EXTT5=
EXTT6=
EXTT7=
EXTT8=
EXTT9=
EXTT10=
EXTT11=
EXTT12=
EXTT13=
EXTT14=
EXTT15=
EXTT16=
EXTT17=
PLAYORDER=
